<mxfile host="app.diagrams.net" modified="2023-11-19T07:14:07.938Z" agent="Mozilla/5.0 (X11; Linux x86_64) AppleWebKit/537.36 (KHTML, like Gecko) Chrome/119.0.0.0 Safari/537.36" etag="lHlEREb10GRT2Hyia19y" version="22.1.3" type="device">
  <diagram name="Page-1" id="q21v9VMaZ5GQ3Boq6yVd">
    <mxGraphModel dx="4217" dy="1268" grid="1" gridSize="10" guides="1" tooltips="1" connect="1" arrows="1" fold="1" page="1" pageScale="1" pageWidth="1920" pageHeight="1200" math="0" shadow="0">
      <root>
        <mxCell id="0" />
        <mxCell id="1" parent="0" />
        <mxCell id="XXvjQiuoDlwYBHkbLlCv-8" value="" style="endArrow=classic;html=1;rounded=1;exitX=0.5;exitY=1;exitDx=0;exitDy=0;labelBackgroundColor=none;fontColor=default;" parent="1" source="XXvjQiuoDlwYBHkbLlCv-12" edge="1">
          <mxGeometry width="50" height="50" relative="1" as="geometry">
            <mxPoint x="430" y="471" as="sourcePoint" />
            <mxPoint x="140" y="446" as="targetPoint" />
          </mxGeometry>
        </mxCell>
        <mxCell id="XXvjQiuoDlwYBHkbLlCv-9" value="&lt;div style=&quot;text-align: center;&quot;&gt;&lt;span style=&quot;font-size: 11px; background-color: rgb(255, 255, 255);&quot;&gt;user not authenticated&lt;/span&gt;&lt;/div&gt;" style="text;whiteSpace=wrap;html=1;labelBackgroundColor=none;rounded=1;" parent="1" vertex="1">
          <mxGeometry x="87" y="386" width="112" height="32" as="geometry" />
        </mxCell>
        <mxCell id="XXvjQiuoDlwYBHkbLlCv-10" value="&lt;span style=&quot;color: rgb(0, 0, 0); font-family: Helvetica; font-size: 11px; font-style: normal; font-variant-ligatures: normal; font-variant-caps: normal; letter-spacing: normal; orphans: 2; text-align: center; text-indent: 0px; text-transform: none; widows: 2; word-spacing: 0px; -webkit-text-stroke-width: 0px; background-color: rgb(255, 255, 255); text-decoration-thickness: initial; text-decoration-style: initial; text-decoration-color: initial; float: none; display: inline !important;&quot;&gt;Landing/Splash page&lt;/span&gt;" style="text;whiteSpace=wrap;html=1;labelBackgroundColor=none;rounded=1;fontStyle=1" parent="1" vertex="1">
          <mxGeometry x="87" y="21" width="115" height="40" as="geometry" />
        </mxCell>
        <mxCell id="XXvjQiuoDlwYBHkbLlCv-11" value="" style="group;labelBackgroundColor=none;rounded=1;" parent="1" vertex="1" connectable="0">
          <mxGeometry x="70" y="51" width="140" height="290" as="geometry" />
        </mxCell>
        <mxCell id="XXvjQiuoDlwYBHkbLlCv-12" value="" style="rounded=1;whiteSpace=wrap;html=1;labelBackgroundColor=none;" parent="XXvjQiuoDlwYBHkbLlCv-11" vertex="1">
          <mxGeometry width="140" height="290" as="geometry" />
        </mxCell>
        <mxCell id="XXvjQiuoDlwYBHkbLlCv-13" value="Logo" style="whiteSpace=wrap;html=1;aspect=fixed;labelBackgroundColor=none;rounded=1;" parent="XXvjQiuoDlwYBHkbLlCv-11" vertex="1">
          <mxGeometry x="30" y="120" width="80" height="80" as="geometry" />
        </mxCell>
        <mxCell id="XXvjQiuoDlwYBHkbLlCv-14" value="" style="endArrow=none;html=1;rounded=1;labelBackgroundColor=none;fontColor=default;" parent="XXvjQiuoDlwYBHkbLlCv-11" edge="1">
          <mxGeometry width="50" height="50" relative="1" as="geometry">
            <mxPoint x="35" y="240" as="sourcePoint" />
            <mxPoint x="105" y="240" as="targetPoint" />
          </mxGeometry>
        </mxCell>
        <mxCell id="XXvjQiuoDlwYBHkbLlCv-15" value="Loading..." style="edgeLabel;html=1;align=center;verticalAlign=middle;resizable=0;points=[];labelBackgroundColor=none;rounded=1;" parent="XXvjQiuoDlwYBHkbLlCv-14" vertex="1" connectable="0">
          <mxGeometry x="0.6" y="-4" relative="1" as="geometry">
            <mxPoint x="-21" y="6" as="offset" />
          </mxGeometry>
        </mxCell>
        <mxCell id="XXvjQiuoDlwYBHkbLlCv-16" value="&lt;span style=&quot;color: rgb(0, 0, 0); font-family: Helvetica; font-size: 11px; font-style: normal; font-variant-ligatures: normal; font-variant-caps: normal; font-weight: 400; letter-spacing: normal; orphans: 2; text-align: center; text-indent: 0px; text-transform: none; widows: 2; word-spacing: 0px; -webkit-text-stroke-width: 0px; background-color: rgb(255, 255, 255); text-decoration-thickness: initial; text-decoration-style: initial; text-decoration-color: initial; float: none; display: inline !important;&quot;&gt;Application Name&lt;/span&gt;" style="text;whiteSpace=wrap;html=1;labelBackgroundColor=none;rounded=1;" parent="XXvjQiuoDlwYBHkbLlCv-11" vertex="1">
          <mxGeometry x="25" y="60" width="90" height="40" as="geometry" />
        </mxCell>
        <mxCell id="XXvjQiuoDlwYBHkbLlCv-25" value="" style="rounded=1;whiteSpace=wrap;html=1;labelBackgroundColor=none;" parent="1" vertex="1">
          <mxGeometry x="75.96" y="811.96" width="140" height="290" as="geometry" />
        </mxCell>
        <mxCell id="XXvjQiuoDlwYBHkbLlCv-26" value="" style="group;labelBackgroundColor=none;rounded=1;" parent="1" vertex="1" connectable="0">
          <mxGeometry x="85.96" y="831.96" width="120" height="210" as="geometry" />
        </mxCell>
        <mxCell id="XXvjQiuoDlwYBHkbLlCv-27" value="&lt;span style=&quot;color: rgb(0, 0, 0); font-family: Helvetica; font-size: 11px; font-style: normal; font-variant-ligatures: normal; font-variant-caps: normal; font-weight: 400; letter-spacing: normal; orphans: 2; text-align: center; text-indent: 0px; text-transform: none; widows: 2; word-spacing: 0px; -webkit-text-stroke-width: 0px; background-color: rgb(255, 255, 255); text-decoration-thickness: initial; text-decoration-style: initial; text-decoration-color: initial; float: none; display: inline !important;&quot;&gt;welcome text&lt;/span&gt;" style="text;whiteSpace=wrap;html=1;labelBackgroundColor=none;rounded=1;" parent="XXvjQiuoDlwYBHkbLlCv-26" vertex="1">
          <mxGeometry x="24.04" width="90" height="40" as="geometry" />
        </mxCell>
        <mxCell id="XXvjQiuoDlwYBHkbLlCv-29" value="email input" style="rounded=1;whiteSpace=wrap;html=1;labelBackgroundColor=none;" parent="XXvjQiuoDlwYBHkbLlCv-26" vertex="1">
          <mxGeometry y="81" width="120" height="19" as="geometry" />
        </mxCell>
        <mxCell id="XXvjQiuoDlwYBHkbLlCv-30" value="password input" style="rounded=1;whiteSpace=wrap;html=1;labelBackgroundColor=none;" parent="XXvjQiuoDlwYBHkbLlCv-26" vertex="1">
          <mxGeometry y="130" width="120" height="17" as="geometry" />
        </mxCell>
        <mxCell id="XXvjQiuoDlwYBHkbLlCv-31" value="password input" style="rounded=1;whiteSpace=wrap;html=1;labelBackgroundColor=none;" parent="XXvjQiuoDlwYBHkbLlCv-26" vertex="1">
          <mxGeometry y="160" width="120" height="22" as="geometry" />
        </mxCell>
        <mxCell id="2I2FUM89oR6Mv60fAfM0-95" value="name input" style="rounded=1;whiteSpace=wrap;html=1;labelBackgroundColor=none;" vertex="1" parent="XXvjQiuoDlwYBHkbLlCv-26">
          <mxGeometry y="104.04" width="120" height="19" as="geometry" />
        </mxCell>
        <mxCell id="XXvjQiuoDlwYBHkbLlCv-32" value="&lt;font color=&quot;#ffffff&quot;&gt;Register&lt;/font&gt;" style="rounded=1;whiteSpace=wrap;html=1;labelBackgroundColor=none;fillColor=#000000;" parent="1" vertex="1">
          <mxGeometry x="85.96" y="1022.96" width="120" height="30" as="geometry" />
        </mxCell>
        <mxCell id="XXvjQiuoDlwYBHkbLlCv-33" value="" style="endArrow=classic;html=1;rounded=1;entryX=0.052;entryY=0.016;entryDx=0;entryDy=0;entryPerimeter=0;labelBackgroundColor=none;fontColor=default;" parent="1" source="XXvjQiuoDlwYBHkbLlCv-24" target="XXvjQiuoDlwYBHkbLlCv-25" edge="1">
          <mxGeometry width="50" height="50" relative="1" as="geometry">
            <mxPoint x="139.95648791030655" y="752.96" as="sourcePoint" />
            <mxPoint x="357.96" y="831.96" as="targetPoint" />
          </mxGeometry>
        </mxCell>
        <mxCell id="XXvjQiuoDlwYBHkbLlCv-34" style="edgeStyle=orthogonalEdgeStyle;rounded=1;orthogonalLoop=1;jettySize=auto;html=1;exitX=0;exitY=0.25;exitDx=0;exitDy=0;labelBackgroundColor=none;fontColor=default;" parent="1" edge="1">
          <mxGeometry relative="1" as="geometry">
            <mxPoint x="65.96" y="730.96" as="targetPoint" />
            <mxPoint x="75.96" y="1044.96" as="sourcePoint" />
            <Array as="points">
              <mxPoint x="19.96" y="1044.96" />
              <mxPoint x="19.96" y="729.96" />
              <mxPoint x="59.96" y="729.96" />
              <mxPoint x="59.96" y="730.96" />
            </Array>
          </mxGeometry>
        </mxCell>
        <mxCell id="XXvjQiuoDlwYBHkbLlCv-35" value="&amp;nbsp; On registration success&amp;nbsp;&amp;nbsp;" style="edgeLabel;html=1;align=center;verticalAlign=middle;resizable=0;points=[];rotation=270;labelBackgroundColor=none;rounded=1;" parent="XXvjQiuoDlwYBHkbLlCv-34" vertex="1" connectable="0">
          <mxGeometry x="-0.8431" y="3" relative="1" as="geometry">
            <mxPoint x="-14" y="-135" as="offset" />
          </mxGeometry>
        </mxCell>
        <mxCell id="XXvjQiuoDlwYBHkbLlCv-36" value="" style="endArrow=classic;html=1;rounded=1;entryX=1.007;entryY=0.348;entryDx=0;entryDy=0;entryPerimeter=0;labelBackgroundColor=none;fontColor=default;" parent="1" target="XXvjQiuoDlwYBHkbLlCv-25" edge="1">
          <mxGeometry width="50" height="50" relative="1" as="geometry">
            <mxPoint x="222.96" y="1045.96" as="sourcePoint" />
            <mxPoint x="233.96" y="909.96" as="targetPoint" />
            <Array as="points">
              <mxPoint x="286.96" y="1045.96" />
              <mxPoint x="286.96" y="912.96" />
            </Array>
          </mxGeometry>
        </mxCell>
        <mxCell id="XXvjQiuoDlwYBHkbLlCv-37" value="&lt;span style=&quot;color: rgb(0, 0, 0); font-family: Helvetica; font-size: 11px; font-style: normal; font-variant-ligatures: normal; font-variant-caps: normal; font-weight: 400; letter-spacing: normal; orphans: 2; text-align: center; text-indent: 0px; text-transform: none; widows: 2; word-spacing: 0px; -webkit-text-stroke-width: 0px; background-color: rgb(255, 255, 255); text-decoration-thickness: initial; text-decoration-style: initial; text-decoration-color: initial; float: none; display: inline !important;&quot;&gt;&amp;nbsp; On registration failure&amp;nbsp;&amp;nbsp;&lt;/span&gt;" style="text;whiteSpace=wrap;html=1;rotation=90;labelBackgroundColor=none;rounded=1;" parent="1" vertex="1">
          <mxGeometry x="196.00333333333327" y="974.9642857142856" width="150" height="36" as="geometry" />
        </mxCell>
        <mxCell id="XXvjQiuoDlwYBHkbLlCv-40" value="&lt;span style=&quot;color: rgb(0, 0, 0); font-family: Helvetica; font-size: 11px; font-style: normal; font-variant-ligatures: normal; font-variant-caps: normal; font-weight: 400; letter-spacing: normal; orphans: 2; text-align: center; text-indent: 0px; text-transform: none; widows: 2; word-spacing: 0px; -webkit-text-stroke-width: 0px; background-color: rgb(255, 255, 255); text-decoration-thickness: initial; text-decoration-style: initial; text-decoration-color: initial; float: none; display: inline !important;&quot;&gt;User authenticated from cache&lt;/span&gt;" style="text;whiteSpace=wrap;html=1;labelBackgroundColor=none;rounded=1;" parent="1" vertex="1">
          <mxGeometry x="231" y="149" width="115" height="40" as="geometry" />
        </mxCell>
        <mxCell id="XXvjQiuoDlwYBHkbLlCv-41" value="&lt;span style=&quot;color: rgb(0, 0, 0); font-family: Helvetica; font-size: 11px; font-style: normal; font-variant-ligatures: normal; font-variant-caps: normal; letter-spacing: normal; orphans: 2; text-align: center; text-indent: 0px; text-transform: none; widows: 2; word-spacing: 0px; -webkit-text-stroke-width: 0px; background-color: rgb(255, 255, 255); text-decoration-thickness: initial; text-decoration-style: initial; text-decoration-color: initial; float: none; display: inline !important;&quot;&gt;Login page&lt;/span&gt;" style="text;whiteSpace=wrap;html=1;labelBackgroundColor=none;rounded=1;fontStyle=1" parent="1" vertex="1">
          <mxGeometry x="108" y="440" width="115" height="40" as="geometry" />
        </mxCell>
        <mxCell id="XXvjQiuoDlwYBHkbLlCv-42" value="&lt;span style=&quot;color: rgb(0, 0, 0); font-family: Helvetica; font-size: 11px; font-style: normal; font-variant-ligatures: normal; font-variant-caps: normal; letter-spacing: normal; orphans: 2; text-align: center; text-indent: 0px; text-transform: none; widows: 2; word-spacing: 0px; -webkit-text-stroke-width: 0px; background-color: rgb(255, 255, 255); text-decoration-thickness: initial; text-decoration-style: initial; text-decoration-color: initial; float: none; display: inline !important;&quot;&gt;Registration page&lt;/span&gt;" style="text;whiteSpace=wrap;html=1;labelBackgroundColor=none;rounded=1;fontStyle=1" parent="1" vertex="1">
          <mxGeometry x="108" y="780" width="115" height="40" as="geometry" />
        </mxCell>
        <mxCell id="XXvjQiuoDlwYBHkbLlCv-45" value="" style="rounded=1;whiteSpace=wrap;html=1;labelBackgroundColor=none;" parent="1" vertex="1">
          <mxGeometry x="530" y="40" width="140" height="290" as="geometry" />
        </mxCell>
        <mxCell id="XXvjQiuoDlwYBHkbLlCv-46" value="app name / logo" style="rounded=1;whiteSpace=wrap;html=1;labelBackgroundColor=none;" parent="1" vertex="1">
          <mxGeometry x="541" y="55" width="69" height="35" as="geometry" />
        </mxCell>
        <mxCell id="2I2FUM89oR6Mv60fAfM0-14" style="edgeStyle=orthogonalEdgeStyle;rounded=1;orthogonalLoop=1;jettySize=auto;html=1;exitX=1;exitY=0.5;exitDx=0;exitDy=0;" edge="1" parent="1" source="XXvjQiuoDlwYBHkbLlCv-47" target="2I2FUM89oR6Mv60fAfM0-3">
          <mxGeometry relative="1" as="geometry" />
        </mxCell>
        <mxCell id="XXvjQiuoDlwYBHkbLlCv-47" value="Find online players" style="rounded=1;whiteSpace=wrap;html=1;labelBackgroundColor=none;" parent="1" vertex="1">
          <mxGeometry x="541" y="122" width="118" height="27" as="geometry" />
        </mxCell>
        <mxCell id="2I2FUM89oR6Mv60fAfM0-8" style="edgeStyle=orthogonalEdgeStyle;rounded=1;orthogonalLoop=1;jettySize=auto;html=1;exitX=1;exitY=0.5;exitDx=0;exitDy=0;" edge="1" parent="1" source="XXvjQiuoDlwYBHkbLlCv-48" target="2I2FUM89oR6Mv60fAfM0-4">
          <mxGeometry relative="1" as="geometry" />
        </mxCell>
        <mxCell id="XXvjQiuoDlwYBHkbLlCv-48" value="Join with invitation code" style="rounded=1;whiteSpace=wrap;html=1;labelBackgroundColor=none;" parent="1" vertex="1">
          <mxGeometry x="539" y="163" width="118" height="37" as="geometry" />
        </mxCell>
        <mxCell id="XXvjQiuoDlwYBHkbLlCv-100" style="edgeStyle=orthogonalEdgeStyle;rounded=1;orthogonalLoop=1;jettySize=auto;html=1;exitX=0.5;exitY=1;exitDx=0;exitDy=0;" parent="1" source="XXvjQiuoDlwYBHkbLlCv-49" edge="1">
          <mxGeometry relative="1" as="geometry">
            <mxPoint x="490" y="460" as="targetPoint" />
          </mxGeometry>
        </mxCell>
        <mxCell id="XXvjQiuoDlwYBHkbLlCv-49" value="&lt;span style=&quot;color: rgb(0, 0, 0); font-family: Helvetica; font-size: 9px; font-style: normal; font-variant-ligatures: normal; font-variant-caps: normal; font-weight: 400; letter-spacing: normal; orphans: 2; text-align: center; text-indent: 0px; text-transform: none; widows: 2; word-spacing: 0px; -webkit-text-stroke-width: 0px; background-color: rgb(251, 251, 251); text-decoration-thickness: initial; text-decoration-style: initial; text-decoration-color: initial; float: none; display: inline !important;&quot;&gt;Leaderboard&lt;/span&gt;" style="rounded=1;whiteSpace=wrap;html=1;labelBackgroundColor=none;" parent="1" vertex="1">
          <mxGeometry x="539" y="254" width="58" height="43" as="geometry" />
        </mxCell>
        <mxCell id="XXvjQiuoDlwYBHkbLlCv-101" style="edgeStyle=orthogonalEdgeStyle;rounded=1;orthogonalLoop=1;jettySize=auto;html=1;exitX=0.5;exitY=1;exitDx=0;exitDy=0;entryX=0.5;entryY=0;entryDx=0;entryDy=0;" parent="1" source="XXvjQiuoDlwYBHkbLlCv-50" target="XXvjQiuoDlwYBHkbLlCv-54" edge="1">
          <mxGeometry relative="1" as="geometry">
            <Array as="points">
              <mxPoint x="632" y="780" />
              <mxPoint x="484" y="780" />
            </Array>
          </mxGeometry>
        </mxCell>
        <mxCell id="XXvjQiuoDlwYBHkbLlCv-50" value="&lt;font style=&quot;font-size: 8px;&quot;&gt;Personal Game Records&lt;/font&gt;" style="rounded=1;whiteSpace=wrap;html=1;labelBackgroundColor=none;" parent="1" vertex="1">
          <mxGeometry x="603" y="254" width="58" height="44" as="geometry" />
        </mxCell>
        <mxCell id="XXvjQiuoDlwYBHkbLlCv-52" value="&lt;span style=&quot;color: rgb(0, 0, 0); font-family: Helvetica; font-size: 11px; font-style: normal; font-variant-ligatures: normal; font-variant-caps: normal; letter-spacing: normal; orphans: 2; text-align: center; text-indent: 0px; text-transform: none; widows: 2; word-spacing: 0px; -webkit-text-stroke-width: 0px; background-color: rgb(255, 255, 255); text-decoration-thickness: initial; text-decoration-style: initial; text-decoration-color: initial; float: none; display: inline !important;&quot;&gt;Application Home&amp;nbsp;&lt;/span&gt;" style="text;whiteSpace=wrap;html=1;labelBackgroundColor=none;rounded=1;fontStyle=1" parent="1" vertex="1">
          <mxGeometry x="553.94" y="11" width="115" height="40" as="geometry" />
        </mxCell>
        <mxCell id="2I2FUM89oR6Mv60fAfM0-13" style="edgeStyle=orthogonalEdgeStyle;rounded=0;orthogonalLoop=1;jettySize=auto;html=1;exitX=1;exitY=0.5;exitDx=0;exitDy=0;entryX=0;entryY=0.5;entryDx=0;entryDy=0;" edge="1" parent="1" source="XXvjQiuoDlwYBHkbLlCv-53" target="2I2FUM89oR6Mv60fAfM0-10">
          <mxGeometry relative="1" as="geometry">
            <Array as="points">
              <mxPoint x="680" y="222" />
              <mxPoint x="680" y="703" />
            </Array>
          </mxGeometry>
        </mxCell>
        <mxCell id="XXvjQiuoDlwYBHkbLlCv-53" value="Invite someone to play" style="rounded=1;whiteSpace=wrap;html=1;labelBackgroundColor=none;" parent="1" vertex="1">
          <mxGeometry x="541" y="203" width="118" height="37" as="geometry" />
        </mxCell>
        <mxCell id="XXvjQiuoDlwYBHkbLlCv-97" value="" style="group" parent="1" vertex="1" connectable="0">
          <mxGeometry x="413.94" y="455" width="140" height="290" as="geometry" />
        </mxCell>
        <mxCell id="XXvjQiuoDlwYBHkbLlCv-60" value="view all records" style="rounded=1;whiteSpace=wrap;html=1;" parent="XXvjQiuoDlwYBHkbLlCv-97" vertex="1">
          <mxGeometry x="4.560000000000002" y="228" width="112" height="15" as="geometry" />
        </mxCell>
        <mxCell id="XXvjQiuoDlwYBHkbLlCv-61" value="" style="rounded=1;whiteSpace=wrap;html=1;labelBackgroundColor=none;" parent="XXvjQiuoDlwYBHkbLlCv-97" vertex="1">
          <mxGeometry y="10" width="140" height="290" as="geometry" />
        </mxCell>
        <mxCell id="XXvjQiuoDlwYBHkbLlCv-79" value="LEADERBOARD" style="text;html=1;align=center;verticalAlign=middle;resizable=0;points=[];autosize=1;strokeColor=none;fillColor=none;" parent="XXvjQiuoDlwYBHkbLlCv-97" vertex="1">
          <mxGeometry x="17.560000000000002" y="43" width="109" height="26" as="geometry" />
        </mxCell>
        <mxCell id="XXvjQiuoDlwYBHkbLlCv-80" value="top players" style="text;html=1;align=center;verticalAlign=middle;resizable=0;points=[];autosize=1;strokeColor=none;fillColor=none;" parent="XXvjQiuoDlwYBHkbLlCv-97" vertex="1">
          <mxGeometry x="33.56" y="87" width="77" height="26" as="geometry" />
        </mxCell>
        <mxCell id="XXvjQiuoDlwYBHkbLlCv-81" value="" style="shape=table;startSize=0;container=1;collapsible=0;childLayout=tableLayout;" parent="XXvjQiuoDlwYBHkbLlCv-97" vertex="1">
          <mxGeometry x="18" y="115" width="104" height="103.72413793103442" as="geometry" />
        </mxCell>
        <mxCell id="XXvjQiuoDlwYBHkbLlCv-82" value="" style="shape=tableRow;horizontal=0;startSize=0;swimlaneHead=0;swimlaneBody=0;strokeColor=inherit;top=0;left=0;bottom=0;right=0;collapsible=0;dropTarget=0;fillColor=none;points=[[0,0.5],[1,0.5]];portConstraint=eastwest;" parent="XXvjQiuoDlwYBHkbLlCv-81" vertex="1">
          <mxGeometry width="104" height="44" as="geometry" />
        </mxCell>
        <mxCell id="XXvjQiuoDlwYBHkbLlCv-83" value="player&lt;br&gt;name" style="shape=partialRectangle;html=1;whiteSpace=wrap;connectable=0;strokeColor=inherit;overflow=hidden;fillColor=none;top=0;left=0;bottom=0;right=0;pointerEvents=1;" parent="XXvjQiuoDlwYBHkbLlCv-82" vertex="1">
          <mxGeometry width="53" height="44" as="geometry">
            <mxRectangle width="53" height="44" as="alternateBounds" />
          </mxGeometry>
        </mxCell>
        <mxCell id="XXvjQiuoDlwYBHkbLlCv-84" value="total wins" style="shape=partialRectangle;html=1;whiteSpace=wrap;connectable=0;strokeColor=inherit;overflow=hidden;fillColor=none;top=0;left=0;bottom=0;right=0;pointerEvents=1;" parent="XXvjQiuoDlwYBHkbLlCv-82" vertex="1">
          <mxGeometry x="53" width="51" height="44" as="geometry">
            <mxRectangle width="51" height="44" as="alternateBounds" />
          </mxGeometry>
        </mxCell>
        <mxCell id="XXvjQiuoDlwYBHkbLlCv-85" value="" style="shape=tableRow;horizontal=0;startSize=0;swimlaneHead=0;swimlaneBody=0;strokeColor=inherit;top=0;left=0;bottom=0;right=0;collapsible=0;dropTarget=0;fillColor=none;points=[[0,0.5],[1,0.5]];portConstraint=eastwest;" parent="XXvjQiuoDlwYBHkbLlCv-81" vertex="1">
          <mxGeometry y="44" width="104" height="20" as="geometry" />
        </mxCell>
        <mxCell id="XXvjQiuoDlwYBHkbLlCv-86" value="" style="shape=partialRectangle;html=1;whiteSpace=wrap;connectable=0;strokeColor=inherit;overflow=hidden;fillColor=none;top=0;left=0;bottom=0;right=0;pointerEvents=1;" parent="XXvjQiuoDlwYBHkbLlCv-85" vertex="1">
          <mxGeometry width="53" height="20" as="geometry">
            <mxRectangle width="53" height="20" as="alternateBounds" />
          </mxGeometry>
        </mxCell>
        <mxCell id="XXvjQiuoDlwYBHkbLlCv-87" value="" style="shape=partialRectangle;html=1;whiteSpace=wrap;connectable=0;strokeColor=inherit;overflow=hidden;fillColor=none;top=0;left=0;bottom=0;right=0;pointerEvents=1;" parent="XXvjQiuoDlwYBHkbLlCv-85" vertex="1">
          <mxGeometry x="53" width="51" height="20" as="geometry">
            <mxRectangle width="51" height="20" as="alternateBounds" />
          </mxGeometry>
        </mxCell>
        <mxCell id="XXvjQiuoDlwYBHkbLlCv-88" value="" style="shape=tableRow;horizontal=0;startSize=0;swimlaneHead=0;swimlaneBody=0;strokeColor=inherit;top=0;left=0;bottom=0;right=0;collapsible=0;dropTarget=0;fillColor=none;points=[[0,0.5],[1,0.5]];portConstraint=eastwest;" parent="XXvjQiuoDlwYBHkbLlCv-81" vertex="1">
          <mxGeometry y="64" width="104" height="20" as="geometry" />
        </mxCell>
        <mxCell id="XXvjQiuoDlwYBHkbLlCv-89" value="" style="shape=partialRectangle;html=1;whiteSpace=wrap;connectable=0;strokeColor=inherit;overflow=hidden;fillColor=none;top=0;left=0;bottom=0;right=0;pointerEvents=1;" parent="XXvjQiuoDlwYBHkbLlCv-88" vertex="1">
          <mxGeometry width="53" height="20" as="geometry">
            <mxRectangle width="53" height="20" as="alternateBounds" />
          </mxGeometry>
        </mxCell>
        <mxCell id="XXvjQiuoDlwYBHkbLlCv-90" value="" style="shape=partialRectangle;html=1;whiteSpace=wrap;connectable=0;strokeColor=inherit;overflow=hidden;fillColor=none;top=0;left=0;bottom=0;right=0;pointerEvents=1;" parent="XXvjQiuoDlwYBHkbLlCv-88" vertex="1">
          <mxGeometry x="53" width="51" height="20" as="geometry">
            <mxRectangle width="51" height="20" as="alternateBounds" />
          </mxGeometry>
        </mxCell>
        <mxCell id="XXvjQiuoDlwYBHkbLlCv-91" value="" style="shape=tableRow;horizontal=0;startSize=0;swimlaneHead=0;swimlaneBody=0;strokeColor=inherit;top=0;left=0;bottom=0;right=0;collapsible=0;dropTarget=0;fillColor=none;points=[[0,0.5],[1,0.5]];portConstraint=eastwest;" parent="XXvjQiuoDlwYBHkbLlCv-81" vertex="1">
          <mxGeometry y="84" width="104" height="20" as="geometry" />
        </mxCell>
        <mxCell id="XXvjQiuoDlwYBHkbLlCv-92" value="" style="shape=partialRectangle;html=1;whiteSpace=wrap;connectable=0;strokeColor=inherit;overflow=hidden;fillColor=none;top=0;left=0;bottom=0;right=0;pointerEvents=1;" parent="XXvjQiuoDlwYBHkbLlCv-91" vertex="1">
          <mxGeometry width="53" height="20" as="geometry">
            <mxRectangle width="53" height="20" as="alternateBounds" />
          </mxGeometry>
        </mxCell>
        <mxCell id="XXvjQiuoDlwYBHkbLlCv-93" value="" style="shape=partialRectangle;html=1;whiteSpace=wrap;connectable=0;strokeColor=inherit;overflow=hidden;fillColor=none;top=0;left=0;bottom=0;right=0;pointerEvents=1;" parent="XXvjQiuoDlwYBHkbLlCv-91" vertex="1">
          <mxGeometry x="53" width="51" height="20" as="geometry">
            <mxRectangle width="51" height="20" as="alternateBounds" />
          </mxGeometry>
        </mxCell>
        <mxCell id="XXvjQiuoDlwYBHkbLlCv-94" value="view all records" style="rounded=1;whiteSpace=wrap;html=1;" parent="XXvjQiuoDlwYBHkbLlCv-97" vertex="1">
          <mxGeometry x="14.560000000000002" y="238" width="112" height="15" as="geometry" />
        </mxCell>
        <mxCell id="XXvjQiuoDlwYBHkbLlCv-95" value="your position: --" style="rounded=1;whiteSpace=wrap;html=1;" parent="XXvjQiuoDlwYBHkbLlCv-97" vertex="1">
          <mxGeometry x="14" y="63" width="112" height="15" as="geometry" />
        </mxCell>
        <mxCell id="XXvjQiuoDlwYBHkbLlCv-98" value="" style="group" parent="1" vertex="1" connectable="0">
          <mxGeometry x="413.94" y="810" width="140.00000000000006" height="290" as="geometry" />
        </mxCell>
        <mxCell id="XXvjQiuoDlwYBHkbLlCv-54" value="" style="rounded=1;whiteSpace=wrap;html=1;labelBackgroundColor=none;" parent="XXvjQiuoDlwYBHkbLlCv-98" vertex="1">
          <mxGeometry width="140" height="290" as="geometry" />
        </mxCell>
        <mxCell id="XXvjQiuoDlwYBHkbLlCv-55" value="last 5 games" style="text;html=1;align=center;verticalAlign=middle;resizable=0;points=[];autosize=1;strokeColor=none;fillColor=none;" parent="XXvjQiuoDlwYBHkbLlCv-98" vertex="1">
          <mxGeometry x="29.560000000000002" y="62" width="86" height="26" as="geometry" />
        </mxCell>
        <mxCell id="XXvjQiuoDlwYBHkbLlCv-56" value="" style="shape=table;startSize=0;container=1;collapsible=0;childLayout=tableLayout;" parent="XXvjQiuoDlwYBHkbLlCv-98" vertex="1">
          <mxGeometry x="9" y="100" width="125" height="25" as="geometry" />
        </mxCell>
        <mxCell id="XXvjQiuoDlwYBHkbLlCv-57" value="" style="shape=tableRow;horizontal=0;startSize=0;swimlaneHead=0;swimlaneBody=0;strokeColor=inherit;top=0;left=0;bottom=0;right=0;collapsible=0;dropTarget=0;fillColor=none;points=[[0,0.5],[1,0.5]];portConstraint=eastwest;" parent="XXvjQiuoDlwYBHkbLlCv-56" vertex="1">
          <mxGeometry width="125" height="25" as="geometry" />
        </mxCell>
        <mxCell id="XXvjQiuoDlwYBHkbLlCv-58" value="opponent&lt;span style=&quot;white-space: pre;&quot;&gt;&#x9;&lt;/span&gt;" style="shape=partialRectangle;html=1;whiteSpace=wrap;connectable=0;strokeColor=inherit;overflow=hidden;fillColor=none;top=0;left=0;bottom=0;right=0;pointerEvents=1;align=center;" parent="XXvjQiuoDlwYBHkbLlCv-57" vertex="1">
          <mxGeometry width="63" height="25" as="geometry">
            <mxRectangle width="63" height="25" as="alternateBounds" />
          </mxGeometry>
        </mxCell>
        <mxCell id="XXvjQiuoDlwYBHkbLlCv-59" value="status" style="shape=partialRectangle;html=1;whiteSpace=wrap;connectable=0;strokeColor=inherit;overflow=hidden;fillColor=none;top=0;left=0;bottom=0;right=0;pointerEvents=1;" parent="XXvjQiuoDlwYBHkbLlCv-57" vertex="1">
          <mxGeometry x="63" width="62" height="25" as="geometry">
            <mxRectangle width="62" height="25" as="alternateBounds" />
          </mxGeometry>
        </mxCell>
        <mxCell id="XXvjQiuoDlwYBHkbLlCv-62" value="PERSONAL&lt;br&gt;RECORS" style="text;html=1;align=center;verticalAlign=middle;resizable=0;points=[];autosize=1;strokeColor=none;fillColor=none;" parent="XXvjQiuoDlwYBHkbLlCv-98" vertex="1">
          <mxGeometry x="31" y="17" width="83" height="41" as="geometry" />
        </mxCell>
        <mxCell id="XXvjQiuoDlwYBHkbLlCv-63" value="" style="shape=table;startSize=0;container=1;collapsible=0;childLayout=tableLayout;" parent="XXvjQiuoDlwYBHkbLlCv-98" vertex="1">
          <mxGeometry x="9" y="126" width="125" height="72" as="geometry" />
        </mxCell>
        <mxCell id="XXvjQiuoDlwYBHkbLlCv-64" value="" style="shape=tableRow;horizontal=0;startSize=0;swimlaneHead=0;swimlaneBody=0;strokeColor=inherit;top=0;left=0;bottom=0;right=0;collapsible=0;dropTarget=0;fillColor=none;points=[[0,0.5],[1,0.5]];portConstraint=eastwest;" parent="XXvjQiuoDlwYBHkbLlCv-63" vertex="1">
          <mxGeometry width="125" height="14" as="geometry" />
        </mxCell>
        <mxCell id="XXvjQiuoDlwYBHkbLlCv-65" value="" style="shape=partialRectangle;html=1;whiteSpace=wrap;connectable=0;strokeColor=inherit;overflow=hidden;fillColor=none;top=0;left=0;bottom=0;right=0;pointerEvents=1;" parent="XXvjQiuoDlwYBHkbLlCv-64" vertex="1">
          <mxGeometry width="64" height="14" as="geometry">
            <mxRectangle width="64" height="14" as="alternateBounds" />
          </mxGeometry>
        </mxCell>
        <mxCell id="XXvjQiuoDlwYBHkbLlCv-66" value="" style="shape=partialRectangle;html=1;whiteSpace=wrap;connectable=0;strokeColor=inherit;overflow=hidden;fillColor=none;top=0;left=0;bottom=0;right=0;pointerEvents=1;" parent="XXvjQiuoDlwYBHkbLlCv-64" vertex="1">
          <mxGeometry x="64" width="61" height="14" as="geometry">
            <mxRectangle width="61" height="14" as="alternateBounds" />
          </mxGeometry>
        </mxCell>
        <mxCell id="XXvjQiuoDlwYBHkbLlCv-67" value="" style="shape=tableRow;horizontal=0;startSize=0;swimlaneHead=0;swimlaneBody=0;strokeColor=inherit;top=0;left=0;bottom=0;right=0;collapsible=0;dropTarget=0;fillColor=none;points=[[0,0.5],[1,0.5]];portConstraint=eastwest;" parent="XXvjQiuoDlwYBHkbLlCv-63" vertex="1">
          <mxGeometry y="14" width="125" height="14" as="geometry" />
        </mxCell>
        <mxCell id="XXvjQiuoDlwYBHkbLlCv-68" value="" style="shape=partialRectangle;html=1;whiteSpace=wrap;connectable=0;strokeColor=inherit;overflow=hidden;fillColor=none;top=0;left=0;bottom=0;right=0;pointerEvents=1;" parent="XXvjQiuoDlwYBHkbLlCv-67" vertex="1">
          <mxGeometry width="64" height="14" as="geometry">
            <mxRectangle width="64" height="14" as="alternateBounds" />
          </mxGeometry>
        </mxCell>
        <mxCell id="XXvjQiuoDlwYBHkbLlCv-69" value="" style="shape=partialRectangle;html=1;whiteSpace=wrap;connectable=0;strokeColor=inherit;overflow=hidden;fillColor=none;top=0;left=0;bottom=0;right=0;pointerEvents=1;" parent="XXvjQiuoDlwYBHkbLlCv-67" vertex="1">
          <mxGeometry x="64" width="61" height="14" as="geometry">
            <mxRectangle width="61" height="14" as="alternateBounds" />
          </mxGeometry>
        </mxCell>
        <mxCell id="XXvjQiuoDlwYBHkbLlCv-70" value="" style="shape=tableRow;horizontal=0;startSize=0;swimlaneHead=0;swimlaneBody=0;strokeColor=inherit;top=0;left=0;bottom=0;right=0;collapsible=0;dropTarget=0;fillColor=none;points=[[0,0.5],[1,0.5]];portConstraint=eastwest;" parent="XXvjQiuoDlwYBHkbLlCv-63" vertex="1">
          <mxGeometry y="28" width="125" height="16" as="geometry" />
        </mxCell>
        <mxCell id="XXvjQiuoDlwYBHkbLlCv-71" value="" style="shape=partialRectangle;html=1;whiteSpace=wrap;connectable=0;strokeColor=inherit;overflow=hidden;fillColor=none;top=0;left=0;bottom=0;right=0;pointerEvents=1;" parent="XXvjQiuoDlwYBHkbLlCv-70" vertex="1">
          <mxGeometry width="64" height="16" as="geometry">
            <mxRectangle width="64" height="16" as="alternateBounds" />
          </mxGeometry>
        </mxCell>
        <mxCell id="XXvjQiuoDlwYBHkbLlCv-72" value="" style="shape=partialRectangle;html=1;whiteSpace=wrap;connectable=0;strokeColor=inherit;overflow=hidden;fillColor=none;top=0;left=0;bottom=0;right=0;pointerEvents=1;" parent="XXvjQiuoDlwYBHkbLlCv-70" vertex="1">
          <mxGeometry x="64" width="61" height="16" as="geometry">
            <mxRectangle width="61" height="16" as="alternateBounds" />
          </mxGeometry>
        </mxCell>
        <mxCell id="XXvjQiuoDlwYBHkbLlCv-73" value="" style="shape=tableRow;horizontal=0;startSize=0;swimlaneHead=0;swimlaneBody=0;strokeColor=inherit;top=0;left=0;bottom=0;right=0;collapsible=0;dropTarget=0;fillColor=none;points=[[0,0.5],[1,0.5]];portConstraint=eastwest;" parent="XXvjQiuoDlwYBHkbLlCv-63" vertex="1">
          <mxGeometry y="44" width="125" height="14" as="geometry" />
        </mxCell>
        <mxCell id="XXvjQiuoDlwYBHkbLlCv-74" value="" style="shape=partialRectangle;html=1;whiteSpace=wrap;connectable=0;strokeColor=inherit;overflow=hidden;fillColor=none;top=0;left=0;bottom=0;right=0;pointerEvents=1;" parent="XXvjQiuoDlwYBHkbLlCv-73" vertex="1">
          <mxGeometry width="64" height="14" as="geometry">
            <mxRectangle width="64" height="14" as="alternateBounds" />
          </mxGeometry>
        </mxCell>
        <mxCell id="XXvjQiuoDlwYBHkbLlCv-75" value="" style="shape=partialRectangle;html=1;whiteSpace=wrap;connectable=0;strokeColor=inherit;overflow=hidden;fillColor=none;top=0;left=0;bottom=0;right=0;pointerEvents=1;" parent="XXvjQiuoDlwYBHkbLlCv-73" vertex="1">
          <mxGeometry x="64" width="61" height="14" as="geometry">
            <mxRectangle width="61" height="14" as="alternateBounds" />
          </mxGeometry>
        </mxCell>
        <mxCell id="XXvjQiuoDlwYBHkbLlCv-76" value="" style="shape=tableRow;horizontal=0;startSize=0;swimlaneHead=0;swimlaneBody=0;strokeColor=inherit;top=0;left=0;bottom=0;right=0;collapsible=0;dropTarget=0;fillColor=none;points=[[0,0.5],[1,0.5]];portConstraint=eastwest;" parent="XXvjQiuoDlwYBHkbLlCv-63" vertex="1">
          <mxGeometry y="58" width="125" height="14" as="geometry" />
        </mxCell>
        <mxCell id="XXvjQiuoDlwYBHkbLlCv-77" value="" style="shape=partialRectangle;html=1;whiteSpace=wrap;connectable=0;strokeColor=inherit;overflow=hidden;fillColor=none;top=0;left=0;bottom=0;right=0;pointerEvents=1;" parent="XXvjQiuoDlwYBHkbLlCv-76" vertex="1">
          <mxGeometry width="64" height="14" as="geometry">
            <mxRectangle width="64" height="14" as="alternateBounds" />
          </mxGeometry>
        </mxCell>
        <mxCell id="XXvjQiuoDlwYBHkbLlCv-78" value="" style="shape=partialRectangle;html=1;whiteSpace=wrap;connectable=0;strokeColor=inherit;overflow=hidden;fillColor=none;top=0;left=0;bottom=0;right=0;pointerEvents=1;" parent="XXvjQiuoDlwYBHkbLlCv-76" vertex="1">
          <mxGeometry x="64" width="61" height="14" as="geometry">
            <mxRectangle width="61" height="14" as="alternateBounds" />
          </mxGeometry>
        </mxCell>
        <mxCell id="XXvjQiuoDlwYBHkbLlCv-96" value="view all records" style="rounded=1;whiteSpace=wrap;html=1;" parent="XXvjQiuoDlwYBHkbLlCv-98" vertex="1">
          <mxGeometry x="18.060000000000002" y="236" width="112" height="15" as="geometry" />
        </mxCell>
        <mxCell id="XXvjQiuoDlwYBHkbLlCv-104" style="edgeStyle=orthogonalEdgeStyle;rounded=1;orthogonalLoop=1;jettySize=auto;html=1;entryX=-0.011;entryY=0.686;entryDx=0;entryDy=0;entryPerimeter=0;exitX=1.004;exitY=0.218;exitDx=0;exitDy=0;exitPerimeter=0;" parent="1" edge="1">
          <mxGeometry relative="1" as="geometry">
            <mxPoint x="216.51999999999998" y="870.1800000000001" as="sourcePoint" />
            <mxPoint x="528.4599999999998" y="233.93999999999994" as="targetPoint" />
            <Array as="points">
              <mxPoint x="216" y="866" />
              <mxPoint x="326" y="866" />
              <mxPoint x="326" y="235" />
              <mxPoint x="520" y="235" />
              <mxPoint x="520" y="234" />
            </Array>
          </mxGeometry>
        </mxCell>
        <mxCell id="XXvjQiuoDlwYBHkbLlCv-106" style="edgeStyle=orthogonalEdgeStyle;rounded=1;orthogonalLoop=1;jettySize=auto;html=1;exitX=1;exitY=0.25;exitDx=0;exitDy=0;entryX=-0.011;entryY=0.627;entryDx=0;entryDy=0;entryPerimeter=0;" parent="1" edge="1">
          <mxGeometry relative="1" as="geometry">
            <mxPoint x="211" y="529.5" as="sourcePoint" />
            <mxPoint x="528.4599999999998" y="216.82999999999993" as="targetPoint" />
            <Array as="points">
              <mxPoint x="300" y="529" />
              <mxPoint x="300" y="217" />
            </Array>
          </mxGeometry>
        </mxCell>
        <mxCell id="XXvjQiuoDlwYBHkbLlCv-107" style="edgeStyle=orthogonalEdgeStyle;rounded=0;orthogonalLoop=1;jettySize=auto;html=1;exitX=1;exitY=0.5;exitDx=0;exitDy=0;entryX=-0.014;entryY=0.539;entryDx=0;entryDy=0;entryPerimeter=0;" parent="1" source="XXvjQiuoDlwYBHkbLlCv-12" target="XXvjQiuoDlwYBHkbLlCv-45" edge="1">
          <mxGeometry relative="1" as="geometry" />
        </mxCell>
        <mxCell id="2I2FUM89oR6Mv60fAfM0-87" style="edgeStyle=orthogonalEdgeStyle;rounded=1;orthogonalLoop=1;jettySize=auto;html=1;exitX=1;exitY=0.5;exitDx=0;exitDy=0;entryX=0.5;entryY=0;entryDx=0;entryDy=0;" edge="1" parent="1" source="2I2FUM89oR6Mv60fAfM0-1" target="2I2FUM89oR6Mv60fAfM0-85">
          <mxGeometry relative="1" as="geometry">
            <Array as="points">
              <mxPoint x="661" y="60" />
              <mxPoint x="1590" y="60" />
            </Array>
          </mxGeometry>
        </mxCell>
        <mxCell id="2I2FUM89oR6Mv60fAfM0-1" value="&lt;font style=&quot;font-size: 9px;&quot;&gt;user image, name&lt;/font&gt;" style="ellipse;whiteSpace=wrap;html=1;aspect=fixed;" vertex="1" parent="1">
          <mxGeometry x="621.03" y="53.03" width="39.97" height="39.97" as="geometry" />
        </mxCell>
        <mxCell id="2I2FUM89oR6Mv60fAfM0-56" style="edgeStyle=orthogonalEdgeStyle;rounded=0;orthogonalLoop=1;jettySize=auto;html=1;exitX=0.5;exitY=1;exitDx=0;exitDy=0;" edge="1" parent="1" source="2I2FUM89oR6Mv60fAfM0-3">
          <mxGeometry relative="1" as="geometry">
            <mxPoint x="1100.1764705882356" y="800" as="targetPoint" />
          </mxGeometry>
        </mxCell>
        <mxCell id="2I2FUM89oR6Mv60fAfM0-57" value="On Success" style="edgeLabel;html=1;align=center;verticalAlign=middle;resizable=0;points=[];rotation=90;" vertex="1" connectable="0" parent="2I2FUM89oR6Mv60fAfM0-56">
          <mxGeometry x="0.0621" y="-6" relative="1" as="geometry">
            <mxPoint x="20" y="-1" as="offset" />
          </mxGeometry>
        </mxCell>
        <mxCell id="2I2FUM89oR6Mv60fAfM0-59" value="On Failure" style="edgeLabel;html=1;align=center;verticalAlign=middle;resizable=0;points=[];rotation=90;" vertex="1" connectable="0" parent="2I2FUM89oR6Mv60fAfM0-56">
          <mxGeometry x="0.0621" y="-6" relative="1" as="geometry">
            <mxPoint x="115" y="-241" as="offset" />
          </mxGeometry>
        </mxCell>
        <mxCell id="2I2FUM89oR6Mv60fAfM0-58" style="edgeStyle=orthogonalEdgeStyle;rounded=1;orthogonalLoop=1;jettySize=auto;html=1;exitX=1;exitY=0.5;exitDx=0;exitDy=0;entryX=1;entryY=0.25;entryDx=0;entryDy=0;" edge="1" parent="1" source="2I2FUM89oR6Mv60fAfM0-3" target="XXvjQiuoDlwYBHkbLlCv-45">
          <mxGeometry relative="1" as="geometry" />
        </mxCell>
        <mxCell id="2I2FUM89oR6Mv60fAfM0-3" value="finding player/match&lt;br&gt;(loading screen)" style="rounded=1;whiteSpace=wrap;html=1;labelBackgroundColor=none;" vertex="1" parent="1">
          <mxGeometry x="1030" y="386" width="140" height="290" as="geometry" />
        </mxCell>
        <mxCell id="2I2FUM89oR6Mv60fAfM0-7" value="" style="group" vertex="1" connectable="0" parent="1">
          <mxGeometry x="730" y="250" width="140" height="318" as="geometry" />
        </mxCell>
        <mxCell id="2I2FUM89oR6Mv60fAfM0-4" value="" style="rounded=1;whiteSpace=wrap;html=1;labelBackgroundColor=none;" vertex="1" parent="2I2FUM89oR6Mv60fAfM0-7">
          <mxGeometry y="-12" width="140" height="290" as="geometry" />
        </mxCell>
        <mxCell id="2I2FUM89oR6Mv60fAfM0-5" value="Enter invitation code" style="rounded=1;whiteSpace=wrap;html=1;labelBackgroundColor=none;" vertex="1" parent="2I2FUM89oR6Mv60fAfM0-7">
          <mxGeometry x="11" y="100.5" width="118" height="41" as="geometry" />
        </mxCell>
        <mxCell id="2I2FUM89oR6Mv60fAfM0-6" value="&lt;font color=&quot;#ffffff&quot;&gt;match and play&lt;/font&gt;" style="rounded=1;whiteSpace=wrap;html=1;labelBackgroundColor=none;fillColor=#000000;" vertex="1" parent="2I2FUM89oR6Mv60fAfM0-7">
          <mxGeometry x="11" y="152.5" width="118" height="30" as="geometry" />
        </mxCell>
        <mxCell id="2I2FUM89oR6Mv60fAfM0-74" value="&lt;div style=&quot;text-align: center;&quot;&gt;&lt;span style=&quot;font-size: 11px; background-color: rgb(255, 255, 255);&quot;&gt;Join Invitation Page&lt;/span&gt;&lt;/div&gt;" style="text;whiteSpace=wrap;html=1;labelBackgroundColor=none;rounded=1;fontStyle=1" vertex="1" parent="2I2FUM89oR6Mv60fAfM0-7">
          <mxGeometry x="11" y="278" width="115" height="40" as="geometry" />
        </mxCell>
        <mxCell id="2I2FUM89oR6Mv60fAfM0-9" value="" style="group" vertex="1" connectable="0" parent="1">
          <mxGeometry x="730" y="558" width="140" height="290" as="geometry" />
        </mxCell>
        <mxCell id="2I2FUM89oR6Mv60fAfM0-10" value="" style="rounded=1;whiteSpace=wrap;html=1;labelBackgroundColor=none;" vertex="1" parent="2I2FUM89oR6Mv60fAfM0-9">
          <mxGeometry width="140" height="290" as="geometry" />
        </mxCell>
        <mxCell id="2I2FUM89oR6Mv60fAfM0-11" value="Generate Invitation code and share&amp;nbsp;" style="rounded=1;whiteSpace=wrap;html=1;labelBackgroundColor=none;" vertex="1" parent="2I2FUM89oR6Mv60fAfM0-9">
          <mxGeometry x="11" y="100.5" width="118" height="41" as="geometry" />
        </mxCell>
        <mxCell id="2I2FUM89oR6Mv60fAfM0-12" value="&lt;font color=&quot;#ffffff&quot;&gt;match and play&lt;/font&gt;" style="rounded=1;whiteSpace=wrap;html=1;labelBackgroundColor=none;fillColor=#000000;" vertex="1" parent="2I2FUM89oR6Mv60fAfM0-9">
          <mxGeometry x="11" y="152.5" width="118" height="30" as="geometry" />
        </mxCell>
        <mxCell id="2I2FUM89oR6Mv60fAfM0-15" value="hfa98y" style="text;html=1;strokeColor=none;fillColor=none;align=center;verticalAlign=middle;whiteSpace=wrap;rounded=0;" vertex="1" parent="2I2FUM89oR6Mv60fAfM0-9">
          <mxGeometry x="40" y="62" width="60" height="30" as="geometry" />
        </mxCell>
        <mxCell id="2I2FUM89oR6Mv60fAfM0-17" style="edgeStyle=orthogonalEdgeStyle;rounded=1;orthogonalLoop=1;jettySize=auto;html=1;exitX=1;exitY=0.5;exitDx=0;exitDy=0;entryX=-0.002;entryY=0.463;entryDx=0;entryDy=0;entryPerimeter=0;" edge="1" parent="1" source="2I2FUM89oR6Mv60fAfM0-4" target="2I2FUM89oR6Mv60fAfM0-3">
          <mxGeometry relative="1" as="geometry" />
        </mxCell>
        <mxCell id="2I2FUM89oR6Mv60fAfM0-18" style="edgeStyle=orthogonalEdgeStyle;rounded=1;orthogonalLoop=1;jettySize=auto;html=1;exitX=1;exitY=0.5;exitDx=0;exitDy=0;entryX=-0.026;entryY=0.595;entryDx=0;entryDy=0;entryPerimeter=0;" edge="1" parent="1" source="2I2FUM89oR6Mv60fAfM0-10" target="2I2FUM89oR6Mv60fAfM0-3">
          <mxGeometry relative="1" as="geometry" />
        </mxCell>
        <mxCell id="2I2FUM89oR6Mv60fAfM0-38" value="" style="group" vertex="1" connectable="0" parent="1">
          <mxGeometry x="1030" y="800" width="140" height="290" as="geometry" />
        </mxCell>
        <mxCell id="2I2FUM89oR6Mv60fAfM0-39" value="" style="rounded=1;whiteSpace=wrap;html=1;labelBackgroundColor=none;" vertex="1" parent="2I2FUM89oR6Mv60fAfM0-38">
          <mxGeometry width="140" height="290" as="geometry" />
        </mxCell>
        <mxCell id="2I2FUM89oR6Mv60fAfM0-40" value="" style="shape=table;startSize=0;container=1;collapsible=0;childLayout=tableLayout;" vertex="1" parent="2I2FUM89oR6Mv60fAfM0-38">
          <mxGeometry x="15" y="105.5" width="114" height="114" as="geometry" />
        </mxCell>
        <mxCell id="2I2FUM89oR6Mv60fAfM0-41" value="" style="shape=tableRow;horizontal=0;startSize=0;swimlaneHead=0;swimlaneBody=0;strokeColor=inherit;top=0;left=0;bottom=0;right=0;collapsible=0;dropTarget=0;fillColor=none;points=[[0,0.5],[1,0.5]];portConstraint=eastwest;" vertex="1" parent="2I2FUM89oR6Mv60fAfM0-40">
          <mxGeometry width="114" height="38" as="geometry" />
        </mxCell>
        <mxCell id="2I2FUM89oR6Mv60fAfM0-42" value="" style="shape=partialRectangle;html=1;whiteSpace=wrap;connectable=0;strokeColor=inherit;overflow=hidden;fillColor=none;top=0;left=0;bottom=0;right=0;pointerEvents=1;" vertex="1" parent="2I2FUM89oR6Mv60fAfM0-41">
          <mxGeometry width="38" height="38" as="geometry">
            <mxRectangle width="38" height="38" as="alternateBounds" />
          </mxGeometry>
        </mxCell>
        <mxCell id="2I2FUM89oR6Mv60fAfM0-43" value="" style="shape=partialRectangle;html=1;whiteSpace=wrap;connectable=0;strokeColor=inherit;overflow=hidden;fillColor=none;top=0;left=0;bottom=0;right=0;pointerEvents=1;" vertex="1" parent="2I2FUM89oR6Mv60fAfM0-41">
          <mxGeometry x="38" width="38" height="38" as="geometry">
            <mxRectangle width="38" height="38" as="alternateBounds" />
          </mxGeometry>
        </mxCell>
        <mxCell id="2I2FUM89oR6Mv60fAfM0-44" value="" style="shape=partialRectangle;html=1;whiteSpace=wrap;connectable=0;strokeColor=inherit;overflow=hidden;fillColor=none;top=0;left=0;bottom=0;right=0;pointerEvents=1;" vertex="1" parent="2I2FUM89oR6Mv60fAfM0-41">
          <mxGeometry x="76" width="38" height="38" as="geometry">
            <mxRectangle width="38" height="38" as="alternateBounds" />
          </mxGeometry>
        </mxCell>
        <mxCell id="2I2FUM89oR6Mv60fAfM0-45" value="" style="shape=tableRow;horizontal=0;startSize=0;swimlaneHead=0;swimlaneBody=0;strokeColor=inherit;top=0;left=0;bottom=0;right=0;collapsible=0;dropTarget=0;fillColor=none;points=[[0,0.5],[1,0.5]];portConstraint=eastwest;" vertex="1" parent="2I2FUM89oR6Mv60fAfM0-40">
          <mxGeometry y="38" width="114" height="38" as="geometry" />
        </mxCell>
        <mxCell id="2I2FUM89oR6Mv60fAfM0-46" value="" style="shape=partialRectangle;html=1;whiteSpace=wrap;connectable=0;strokeColor=inherit;overflow=hidden;fillColor=none;top=0;left=0;bottom=0;right=0;pointerEvents=1;" vertex="1" parent="2I2FUM89oR6Mv60fAfM0-45">
          <mxGeometry width="38" height="38" as="geometry">
            <mxRectangle width="38" height="38" as="alternateBounds" />
          </mxGeometry>
        </mxCell>
        <mxCell id="2I2FUM89oR6Mv60fAfM0-47" value="" style="shape=partialRectangle;html=1;whiteSpace=wrap;connectable=0;strokeColor=inherit;overflow=hidden;fillColor=none;top=0;left=0;bottom=0;right=0;pointerEvents=1;" vertex="1" parent="2I2FUM89oR6Mv60fAfM0-45">
          <mxGeometry x="38" width="38" height="38" as="geometry">
            <mxRectangle width="38" height="38" as="alternateBounds" />
          </mxGeometry>
        </mxCell>
        <mxCell id="2I2FUM89oR6Mv60fAfM0-48" value="" style="shape=partialRectangle;html=1;whiteSpace=wrap;connectable=0;strokeColor=inherit;overflow=hidden;fillColor=none;top=0;left=0;bottom=0;right=0;pointerEvents=1;" vertex="1" parent="2I2FUM89oR6Mv60fAfM0-45">
          <mxGeometry x="76" width="38" height="38" as="geometry">
            <mxRectangle width="38" height="38" as="alternateBounds" />
          </mxGeometry>
        </mxCell>
        <mxCell id="2I2FUM89oR6Mv60fAfM0-49" value="" style="shape=tableRow;horizontal=0;startSize=0;swimlaneHead=0;swimlaneBody=0;strokeColor=inherit;top=0;left=0;bottom=0;right=0;collapsible=0;dropTarget=0;fillColor=none;points=[[0,0.5],[1,0.5]];portConstraint=eastwest;" vertex="1" parent="2I2FUM89oR6Mv60fAfM0-40">
          <mxGeometry y="76" width="114" height="38" as="geometry" />
        </mxCell>
        <mxCell id="2I2FUM89oR6Mv60fAfM0-50" value="" style="shape=partialRectangle;html=1;whiteSpace=wrap;connectable=0;strokeColor=inherit;overflow=hidden;fillColor=none;top=0;left=0;bottom=0;right=0;pointerEvents=1;" vertex="1" parent="2I2FUM89oR6Mv60fAfM0-49">
          <mxGeometry width="38" height="38" as="geometry">
            <mxRectangle width="38" height="38" as="alternateBounds" />
          </mxGeometry>
        </mxCell>
        <mxCell id="2I2FUM89oR6Mv60fAfM0-51" value="" style="shape=partialRectangle;html=1;whiteSpace=wrap;connectable=0;strokeColor=inherit;overflow=hidden;fillColor=none;top=0;left=0;bottom=0;right=0;pointerEvents=1;" vertex="1" parent="2I2FUM89oR6Mv60fAfM0-49">
          <mxGeometry x="38" width="38" height="38" as="geometry">
            <mxRectangle width="38" height="38" as="alternateBounds" />
          </mxGeometry>
        </mxCell>
        <mxCell id="2I2FUM89oR6Mv60fAfM0-52" value="" style="shape=partialRectangle;html=1;whiteSpace=wrap;connectable=0;strokeColor=inherit;overflow=hidden;fillColor=none;top=0;left=0;bottom=0;right=0;pointerEvents=1;" vertex="1" parent="2I2FUM89oR6Mv60fAfM0-49">
          <mxGeometry x="76" width="38" height="38" as="geometry">
            <mxRectangle width="38" height="38" as="alternateBounds" />
          </mxGeometry>
        </mxCell>
        <mxCell id="2I2FUM89oR6Mv60fAfM0-53" value="player1" style="text;html=1;align=center;verticalAlign=middle;resizable=0;points=[];autosize=1;strokeColor=none;fillColor=none;" vertex="1" parent="2I2FUM89oR6Mv60fAfM0-38">
          <mxGeometry x="6" y="44.5" width="57" height="26" as="geometry" />
        </mxCell>
        <mxCell id="2I2FUM89oR6Mv60fAfM0-54" value="player2" style="text;html=1;align=center;verticalAlign=middle;resizable=0;points=[];autosize=1;strokeColor=none;fillColor=none;" vertex="1" parent="2I2FUM89oR6Mv60fAfM0-38">
          <mxGeometry x="78" y="44.5" width="57" height="26" as="geometry" />
        </mxCell>
        <mxCell id="2I2FUM89oR6Mv60fAfM0-55" value="vs" style="text;html=1;align=center;verticalAlign=middle;resizable=0;points=[];autosize=1;strokeColor=none;fillColor=none;" vertex="1" parent="2I2FUM89oR6Mv60fAfM0-38">
          <mxGeometry x="55" y="49.5" width="30" height="26" as="geometry" />
        </mxCell>
        <mxCell id="2I2FUM89oR6Mv60fAfM0-61" value="" style="group" vertex="1" connectable="0" parent="1">
          <mxGeometry x="1230" y="800" width="140" height="290" as="geometry" />
        </mxCell>
        <mxCell id="2I2FUM89oR6Mv60fAfM0-62" value="" style="rounded=1;whiteSpace=wrap;html=1;labelBackgroundColor=none;" vertex="1" parent="2I2FUM89oR6Mv60fAfM0-61">
          <mxGeometry width="140" height="290" as="geometry" />
        </mxCell>
        <mxCell id="2I2FUM89oR6Mv60fAfM0-63" value="re-match" style="rounded=1;whiteSpace=wrap;html=1;" vertex="1" parent="2I2FUM89oR6Mv60fAfM0-61">
          <mxGeometry x="10" y="52" width="120" height="60" as="geometry" />
        </mxCell>
        <mxCell id="2I2FUM89oR6Mv60fAfM0-64" value="end session" style="rounded=1;whiteSpace=wrap;html=1;" vertex="1" parent="2I2FUM89oR6Mv60fAfM0-61">
          <mxGeometry x="10" y="128" width="120" height="60" as="geometry" />
        </mxCell>
        <mxCell id="2I2FUM89oR6Mv60fAfM0-65" value="on match end" style="edgeLabel;html=1;align=center;verticalAlign=middle;resizable=0;points=[];" vertex="1" connectable="0" parent="1">
          <mxGeometry x="1199.998896436356" y="1119.9965529576593" as="geometry" />
        </mxCell>
        <mxCell id="2I2FUM89oR6Mv60fAfM0-67" style="edgeStyle=orthogonalEdgeStyle;rounded=1;orthogonalLoop=1;jettySize=auto;html=1;exitX=0.5;exitY=1;exitDx=0;exitDy=0;entryX=0.5;entryY=1;entryDx=0;entryDy=0;" edge="1" parent="1" source="2I2FUM89oR6Mv60fAfM0-39" target="2I2FUM89oR6Mv60fAfM0-62">
          <mxGeometry relative="1" as="geometry" />
        </mxCell>
        <mxCell id="2I2FUM89oR6Mv60fAfM0-68" value="re-match" style="edgeLabel;html=1;align=center;verticalAlign=middle;resizable=0;points=[];rotation=90;" vertex="1" connectable="0" parent="1">
          <mxGeometry x="1310" y="689.9983217991206" as="geometry">
            <mxPoint y="-8" as="offset" />
          </mxGeometry>
        </mxCell>
        <mxCell id="2I2FUM89oR6Mv60fAfM0-69" style="edgeStyle=orthogonalEdgeStyle;rounded=1;orthogonalLoop=1;jettySize=auto;html=1;exitX=0.5;exitY=0;exitDx=0;exitDy=0;entryX=1.005;entryY=0.56;entryDx=0;entryDy=0;entryPerimeter=0;" edge="1" parent="1" source="2I2FUM89oR6Mv60fAfM0-63" target="2I2FUM89oR6Mv60fAfM0-3">
          <mxGeometry relative="1" as="geometry" />
        </mxCell>
        <mxCell id="2I2FUM89oR6Mv60fAfM0-70" style="edgeStyle=orthogonalEdgeStyle;rounded=1;orthogonalLoop=1;jettySize=auto;html=1;exitX=1;exitY=0.5;exitDx=0;exitDy=0;entryX=1.005;entryY=0.159;entryDx=0;entryDy=0;entryPerimeter=0;" edge="1" parent="1" source="2I2FUM89oR6Mv60fAfM0-64" target="XXvjQiuoDlwYBHkbLlCv-45">
          <mxGeometry relative="1" as="geometry" />
        </mxCell>
        <mxCell id="2I2FUM89oR6Mv60fAfM0-71" value="&lt;div style=&quot;text-align: center;&quot;&gt;&lt;span style=&quot;font-size: 11px; background-color: rgb(255, 255, 255);&quot;&gt;Personal Game Record Page&lt;/span&gt;&lt;/div&gt;" style="text;whiteSpace=wrap;html=1;labelBackgroundColor=none;rounded=1;fontStyle=1" vertex="1" parent="1">
          <mxGeometry x="426.44" y="1110" width="115" height="40" as="geometry" />
        </mxCell>
        <mxCell id="2I2FUM89oR6Mv60fAfM0-73" value="&lt;div style=&quot;text-align: center;&quot;&gt;&lt;span style=&quot;font-size: 11px; background-color: rgb(255, 255, 255);&quot;&gt;Leaderboard Page&lt;/span&gt;&lt;/div&gt;" style="text;whiteSpace=wrap;html=1;labelBackgroundColor=none;rounded=1;fontStyle=1" vertex="1" parent="1">
          <mxGeometry x="438.94" y="752" width="115" height="40" as="geometry" />
        </mxCell>
        <mxCell id="2I2FUM89oR6Mv60fAfM0-75" value="&lt;div style=&quot;text-align: center;&quot;&gt;&lt;span style=&quot;font-size: 11px; background-color: rgb(255, 255, 255);&quot;&gt;Invitation Page&lt;/span&gt;&lt;/div&gt;" style="text;whiteSpace=wrap;html=1;labelBackgroundColor=none;rounded=1;fontStyle=1" vertex="1" parent="1">
          <mxGeometry x="760" y="850" width="115" height="40" as="geometry" />
        </mxCell>
        <mxCell id="2I2FUM89oR6Mv60fAfM0-81" value="&lt;span style=&quot;color: rgb(0, 0, 0); font-family: Helvetica; font-size: 11px; font-style: normal; font-variant-ligatures: normal; font-variant-caps: normal; font-weight: 700; letter-spacing: normal; orphans: 2; text-align: center; text-indent: 0px; text-transform: none; widows: 2; word-spacing: 0px; -webkit-text-stroke-width: 0px; background-color: rgb(255, 255, 255); text-decoration-thickness: initial; text-decoration-style: initial; text-decoration-color: initial; float: none; display: inline !important;&quot;&gt;Game Loading Page&lt;/span&gt;" style="text;whiteSpace=wrap;html=1;" vertex="1" parent="1">
          <mxGeometry x="990" y="350" width="120" height="30" as="geometry" />
        </mxCell>
        <mxCell id="2I2FUM89oR6Mv60fAfM0-83" value="&lt;span style=&quot;color: rgb(0, 0, 0); font-family: Helvetica; font-size: 11px; font-style: normal; font-variant-ligatures: normal; font-variant-caps: normal; font-weight: 700; letter-spacing: normal; orphans: 2; text-align: center; text-indent: 0px; text-transform: none; widows: 2; word-spacing: 0px; -webkit-text-stroke-width: 0px; background-color: rgb(255, 255, 255); text-decoration-thickness: initial; text-decoration-style: initial; text-decoration-color: initial; float: none; display: inline !important;&quot;&gt;The Game Page&lt;/span&gt;" style="text;whiteSpace=wrap;html=1;" vertex="1" parent="1">
          <mxGeometry x="1000" y="770" width="140" height="40" as="geometry" />
        </mxCell>
        <mxCell id="2I2FUM89oR6Mv60fAfM0-84" value="&lt;span style=&quot;color: rgb(0, 0, 0); font-family: Helvetica; font-size: 11px; font-style: normal; font-variant-ligatures: normal; font-variant-caps: normal; font-weight: 700; letter-spacing: normal; orphans: 2; text-align: center; text-indent: 0px; text-transform: none; widows: 2; word-spacing: 0px; -webkit-text-stroke-width: 0px; background-color: rgb(255, 255, 255); text-decoration-thickness: initial; text-decoration-style: initial; text-decoration-color: initial; float: none; display: inline !important;&quot;&gt;After Game Page&lt;/span&gt;" style="text;whiteSpace=wrap;html=1;" vertex="1" parent="1">
          <mxGeometry x="1200" y="770" width="140" height="40" as="geometry" />
        </mxCell>
        <mxCell id="2I2FUM89oR6Mv60fAfM0-85" value="&lt;br&gt;" style="rounded=1;whiteSpace=wrap;html=1;labelBackgroundColor=none;" vertex="1" parent="1">
          <mxGeometry x="1520" y="76.5" width="140" height="290" as="geometry" />
        </mxCell>
        <mxCell id="2I2FUM89oR6Mv60fAfM0-86" value="&lt;span style=&quot;color: rgb(0, 0, 0); font-family: Helvetica; font-size: 11px; font-style: normal; font-variant-ligatures: normal; font-variant-caps: normal; font-weight: 700; letter-spacing: normal; orphans: 2; text-align: center; text-indent: 0px; text-transform: none; widows: 2; word-spacing: 0px; -webkit-text-stroke-width: 0px; background-color: rgb(255, 255, 255); text-decoration-thickness: initial; text-decoration-style: initial; text-decoration-color: initial; float: none; display: inline !important;&quot;&gt;User Profile Page&lt;/span&gt;" style="text;whiteSpace=wrap;html=1;" vertex="1" parent="1">
          <mxGeometry x="1540" y="370" width="120" height="30" as="geometry" />
        </mxCell>
        <mxCell id="2I2FUM89oR6Mv60fAfM0-96" value="&lt;font style=&quot;font-size: 9px;&quot;&gt;image&lt;/font&gt;" style="whiteSpace=wrap;html=1;aspect=fixed;labelBackgroundColor=none;rounded=1;" vertex="1" parent="1">
          <mxGeometry x="121.96" y="860" width="48" height="48" as="geometry" />
        </mxCell>
        <mxCell id="2I2FUM89oR6Mv60fAfM0-98" value="" style="rounded=1;whiteSpace=wrap;html=1;labelBackgroundColor=none;" vertex="1" parent="1">
          <mxGeometry x="-180" y="480" width="140" height="290" as="geometry" />
        </mxCell>
        <mxCell id="XXvjQiuoDlwYBHkbLlCv-18" value="" style="rounded=1;whiteSpace=wrap;html=1;labelBackgroundColor=none;" parent="1" vertex="1">
          <mxGeometry x="71" y="462" width="140" height="290" as="geometry" />
        </mxCell>
        <mxCell id="XXvjQiuoDlwYBHkbLlCv-19" value="&lt;span style=&quot;color: rgb(0, 0, 0); font-family: Helvetica; font-size: 11px; font-style: normal; font-variant-ligatures: normal; font-variant-caps: normal; font-weight: 400; letter-spacing: normal; orphans: 2; text-align: center; text-indent: 0px; text-transform: none; widows: 2; word-spacing: 0px; -webkit-text-stroke-width: 0px; background-color: rgb(255, 255, 255); text-decoration-thickness: initial; text-decoration-style: initial; text-decoration-color: initial; float: none; display: inline !important;&quot;&gt;Application Name&lt;/span&gt;" style="text;whiteSpace=wrap;html=1;labelBackgroundColor=none;rounded=1;" parent="1" vertex="1">
          <mxGeometry x="96" y="472" width="90" height="40" as="geometry" />
        </mxCell>
        <mxCell id="XXvjQiuoDlwYBHkbLlCv-20" value="&lt;span style=&quot;color: rgb(0, 0, 0); font-family: Helvetica; font-size: 11px; font-style: normal; font-variant-ligatures: normal; font-variant-caps: normal; font-weight: 400; letter-spacing: normal; orphans: 2; text-align: center; text-indent: 0px; text-transform: none; widows: 2; word-spacing: 0px; -webkit-text-stroke-width: 0px; background-color: rgb(255, 255, 255); text-decoration-thickness: initial; text-decoration-style: initial; text-decoration-color: initial; float: none; display: inline !important;&quot;&gt;Welcome text&lt;/span&gt;" style="text;whiteSpace=wrap;html=1;labelBackgroundColor=none;rounded=1;" parent="1" vertex="1">
          <mxGeometry x="103.5" y="522" width="75" height="40" as="geometry" />
        </mxCell>
        <mxCell id="XXvjQiuoDlwYBHkbLlCv-21" value="email input" style="rounded=1;whiteSpace=wrap;html=1;labelBackgroundColor=none;" parent="1" vertex="1">
          <mxGeometry x="81" y="562" width="120" height="20" as="geometry" />
        </mxCell>
        <mxCell id="XXvjQiuoDlwYBHkbLlCv-22" value="password input" style="rounded=1;whiteSpace=wrap;html=1;labelBackgroundColor=none;" parent="1" vertex="1">
          <mxGeometry x="80" y="590" width="120" height="20" as="geometry" />
        </mxCell>
        <mxCell id="XXvjQiuoDlwYBHkbLlCv-23" value="&lt;font color=&quot;#ffffff&quot;&gt;Login&lt;/font&gt;" style="rounded=1;whiteSpace=wrap;html=1;labelBackgroundColor=none;fillColor=#000000;" parent="1" vertex="1">
          <mxGeometry x="81" y="662" width="120" height="20" as="geometry" />
        </mxCell>
        <mxCell id="XXvjQiuoDlwYBHkbLlCv-24" value="create an account" style="text;html=1;align=center;verticalAlign=middle;resizable=0;points=[];autosize=1;strokeColor=default;fillColor=none;labelBackgroundColor=none;rounded=1;" parent="1" vertex="1">
          <mxGeometry x="84.5" y="690" width="113" height="26" as="geometry" />
        </mxCell>
        <mxCell id="2I2FUM89oR6Mv60fAfM0-101" value="&lt;p style=&quot;line-height: 70%;&quot;&gt;&lt;font style=&quot;font-size: 10px;&quot;&gt;reset password&lt;/font&gt;&lt;/p&gt;" style="rounded=1;whiteSpace=wrap;html=1;labelBackgroundColor=none;" vertex="1" parent="1">
          <mxGeometry x="130" y="620" width="70" height="20" as="geometry" />
        </mxCell>
        <mxCell id="2I2FUM89oR6Mv60fAfM0-108" value="" style="curved=1;endArrow=classic;html=1;rounded=0;exitX=0.383;exitY=0.978;exitDx=0;exitDy=0;exitPerimeter=0;" edge="1" parent="1" source="2I2FUM89oR6Mv60fAfM0-110">
          <mxGeometry width="50" height="50" relative="1" as="geometry">
            <mxPoint x="70" y="626" as="sourcePoint" />
            <mxPoint x="70" y="518" as="targetPoint" />
            <Array as="points">
              <mxPoint x="10" y="602" />
              <mxPoint x="10" y="530" />
            </Array>
          </mxGeometry>
        </mxCell>
        <mxCell id="2I2FUM89oR6Mv60fAfM0-110" value="&lt;span style=&quot;color: rgb(0, 0, 0); font-family: Helvetica; font-size: 11px; font-style: normal; font-variant-ligatures: normal; font-variant-caps: normal; font-weight: 400; letter-spacing: normal; orphans: 2; text-align: center; text-indent: 0px; text-transform: none; widows: 2; word-spacing: 0px; -webkit-text-stroke-width: 0px; background-color: rgb(251, 251, 251); text-decoration-thickness: initial; text-decoration-style: initial; text-decoration-color: initial; float: none; display: inline !important;&quot;&gt;&amp;nbsp; On login failure&amp;nbsp;&amp;nbsp;&lt;/span&gt;" style="text;whiteSpace=wrap;html=1;direction=north;" vertex="1" parent="1">
          <mxGeometry x="31" y="542" width="40" height="120" as="geometry" />
        </mxCell>
        <mxCell id="2I2FUM89oR6Mv60fAfM0-111" style="edgeStyle=orthogonalEdgeStyle;rounded=0;orthogonalLoop=1;jettySize=auto;html=1;exitX=0;exitY=0.5;exitDx=0;exitDy=0;entryX=0.987;entryY=0.519;entryDx=0;entryDy=0;entryPerimeter=0;" edge="1" parent="1" source="2I2FUM89oR6Mv60fAfM0-101" target="2I2FUM89oR6Mv60fAfM0-98">
          <mxGeometry relative="1" as="geometry" />
        </mxCell>
        <mxCell id="2I2FUM89oR6Mv60fAfM0-112" value="enter email" style="rounded=1;whiteSpace=wrap;html=1;labelBackgroundColor=none;" vertex="1" parent="1">
          <mxGeometry x="-170" y="597" width="120" height="20" as="geometry" />
        </mxCell>
        <mxCell id="2I2FUM89oR6Mv60fAfM0-113" value="&lt;font color=&quot;#ffffff&quot;&gt;reset password&lt;/font&gt;" style="rounded=1;whiteSpace=wrap;html=1;labelBackgroundColor=none;fillColor=#000000;" vertex="1" parent="1">
          <mxGeometry x="-170" y="630" width="120" height="20" as="geometry" />
        </mxCell>
        <mxCell id="2I2FUM89oR6Mv60fAfM0-114" value="&lt;font color=&quot;#ffffff&quot;&gt;update&lt;/font&gt;" style="rounded=1;whiteSpace=wrap;html=1;labelBackgroundColor=none;fillColor=#000000;" vertex="1" parent="1">
          <mxGeometry x="1530" y="272.96" width="120" height="30" as="geometry" />
        </mxCell>
        <mxCell id="2I2FUM89oR6Mv60fAfM0-115" value="&lt;font style=&quot;font-size: 9px;&quot;&gt;image&lt;/font&gt;" style="whiteSpace=wrap;html=1;aspect=fixed;labelBackgroundColor=none;rounded=1;" vertex="1" parent="1">
          <mxGeometry x="1566" y="100.99999999999994" width="48" height="48" as="geometry" />
        </mxCell>
        <mxCell id="2I2FUM89oR6Mv60fAfM0-119" value="" style="group" vertex="1" connectable="0" parent="1">
          <mxGeometry x="1600" y="132" width="20" height="18" as="geometry" />
        </mxCell>
        <mxCell id="2I2FUM89oR6Mv60fAfM0-117" value="" style="ellipse;whiteSpace=wrap;html=1;aspect=fixed;fillColor=#000000;" vertex="1" parent="2I2FUM89oR6Mv60fAfM0-119">
          <mxGeometry width="18" height="18" as="geometry" />
        </mxCell>
        <mxCell id="2I2FUM89oR6Mv60fAfM0-118" value="" style="shape=image;html=1;verticalAlign=top;verticalLabelPosition=bottom;labelBackgroundColor=#ffffff;imageAspect=0;aspect=fixed;image=https://cdn0.iconfinder.com/data/icons/evericons-24px-vol-1/24/pencil-create-128.png" vertex="1" parent="2I2FUM89oR6Mv60fAfM0-119">
          <mxGeometry x="2.5806451612903225" y="2.3225806451612905" width="13.35483870967742" height="13.35483870967742" as="geometry" />
        </mxCell>
        <mxCell id="2I2FUM89oR6Mv60fAfM0-120" value="email" style="rounded=1;whiteSpace=wrap;html=1;" vertex="1" parent="1">
          <mxGeometry x="1545" y="166.25" width="90" height="15" as="geometry" />
        </mxCell>
        <mxCell id="2I2FUM89oR6Mv60fAfM0-121" value="name" style="rounded=1;whiteSpace=wrap;html=1;" vertex="1" parent="1">
          <mxGeometry x="1545" y="188.75" width="90" height="15" as="geometry" />
        </mxCell>
      </root>
    </mxGraphModel>
  </diagram>
</mxfile>
